<svg xmlns="http://www.w3.org/2000/svg" version="1.1" xmlns:xlink="http://www.w3.org/1999/xlink" xmlns:svgjs="http://svgjs.dev/svgjs" width="1000" height="1125" viewBox="0 0 1000 1125"><g transform="matrix(1,0,0,1,1.7053025658242404e-13,0)"><svg viewBox="0 0 320 360" data-background-color="#fafafa" preserveAspectRatio="xMidYMid meet" height="1125" width="1000" xmlns="http://www.w3.org/2000/svg" xmlns:xlink="http://www.w3.org/1999/xlink"><g id="tight-bounds" transform="matrix(1,0,0,1,0,0)"><svg viewBox="0 0 320 360" height="360" width="320"><g><svg></svg></g><g><svg viewBox="0 0 320 360" height="360" width="320"><g><path xmlns="http://www.w3.org/2000/svg" d="M20.961 227.22l3.726 4.658-1.863-6.056c-0.466-2.795-3.726 0.466-1.863 1.398M25.153 224.425c1.397 2.329 2.795 4.658 2.795 6.987 0 3.261 2.795 4.658 5.123 5.589-3.261-3.726-5.124-13.974-7.918-12.576M204.017 26.929c7.918 0 15.371-0.932 23.756 0.931 20.495 5.124 37.729 15.371 49.374 29.811l32.606 52.169c1.397 13.042 4.192 27.482 3.726 43.319 3.261 0 2.795-4.658 6.521-5.59-3.726 9.316-5.59 20.961-6.521 34.469-2.329-7.453 0-18.632 0.466-24.687-3.261 5.124-5.124 1.397-5.124-0.932 0.466-3.726-1.397-3.261-2.795-4.658-5.124-4.658-8.384-9.782-12.11-17.7 2.329-6.055 2.795-14.905-4.658-19.563-2.329-1.397-5.124-3.726-6.521-7.453-1.863-5.124-5.124-11.179-4.193-19.097 0.466-2.329-6.987 5.124-11.179 1.863-18.166-12.576-36.332-27.016-58.224-39.127-11.645 0-20.029-4.192-24.221-9.316-3.726-4.658-0.932-10.713 4.658-11.179 3.261 0 6.987-0.932 9.782 0.932 0.466-1.863 2.329-4.192 4.657-4.192M157.904 16.215l0.932 0.466c4.658 0.932 6.987 7.453 12.11 5.124 0 3.261 0.466 6.521-0.466 8.85-1.397 3.726-5.59 3.726-8.85 3.726-31.208-1.863-49.374 11.179-68.471 22.358-5.124 3.261-10.713 5.59-14.906 9.782-20.029 18.632-41.921 35.866-47.045 70.335l-4.192 38.195c-0.466 4.192-5.124 8.384-4.192 13.508l3.26 22.824c-3.261-3.261-5.124 0.932-4.192 2.795 0.466 1.397 2.329 6.055 5.124 1.863 3.726 6.987 7.453 20.495 12.576 26.55 15.837 18.632 36.332 35.4 53.101 52.169 4.192-0.932 7.453-0.932 8.384-3.727 1.397 2.795-1.397 5.59-3.726 6.056 7.453 4.658 15.837 8.85 27.016 9.781 14.44 0.932 27.948 3.261 40.524 6.522 6.521-1.863 13.042-2.795 20.029-3.261 2.329 0 3.726-3.726 6.521-4.658l0.466-4.658c2.795 4.192 2.329-1.397 0.466-4.192 3.261 2.795 4.192 5.124 5.589 6.987 0-1.397 3.726-6.521 3.727-0.466l0.931-6.055c1.397-0.932 1.863 5.124 3.261 0.931 1.397-4.192 4.192-0.932 6.987-2.329-0.932 1.863-0.466 5.59 2.794 3.261l3.727-3.261c2.329 5.59 6.055 3.261 7.918 2.329 20.495-13.042 40.99-28.413 60.553-43.784l-0.466 6.055 2.329-7.453c2.329 2.329 4.192 0.466 5.124-0.931 2.795-4.658 6.521-9.316 12.577-13.508-7.453 20.029-16.303 35.866-27.482 48.908l-4.658 5.59c0 3.261-0.932 7.453-4.658 7.918-1.863 0.466-5.59-0.932-8.384 1.863-1.397 1.863 3.261 5.59-0.466 2.795-3.261-2.329-6.521 0-10.248 0.932-2.795 0.932 1.863 3.726 2.795 5.589 0.932 1.863 1.863 3.726 1.398 6.056l-5.124-5.59c-6.055 3.261-9.782 9.316-14.906 13.974-2.329 1.863-1.397 5.124-1.397 7.918-3.261 0-6.987-0.932-8.85 0.932-1.397 1.863-0.932 4.658-0.932 7.453-4.658-0.466-5.124-7.453-9.315-6.056-4.192 0.932-8.85 1.397-12.577 3.727 2.795 5.59-4.658 2.329-3.726 3.26-6.987-4.192-13.042-7.453-20.495-4.658-15.837-5.124-35.4-2.795-49.84-0.931 0-2.329 0.466-4.658-0.466-5.124-0.932 2.329-3.726 1.397-3.26 1.397-8.85-6.055-17.7-9.782-27.016-14.905-8.384 0.932-16.303-3.261-18.632-5.59-6.521-6.055-13.974-2.795-20.029-4.192-13.042-3.261-17.7-16.769-19.098-26.084-0.932-4.658-4.658-6.521-6.055-6.056-6.055-19.563-15.371-37.263-22.824-55.429-1.863-4.658-1.397-9.316-1.397-14.44 2.329 0.932 4.658 0.466 4.192-2.794-2.329-15.371-7.918-27.016-13.974-38.195 3.261-15.837 3.726-34.469 11.179-48.443 6.521-12.576 18.632-19.098 27.016-29.811 2.795-3.726 2.795-8.85 5.59-12.11 9.316-9.316 18.632-19.098 28.879-27.482 4.658-3.726 10.247 0 17.234-1.397 2.329-8.384 11.645-15.837 20.495-13.508 3.726 0.932 11.179-8.85 13.508-9.782 3.726-1.397 1.863 3.726 1.863 6.987 8.85-6.987 20.961-10.713 32.14-14.906" fill="#ffffff" fill-rule="nonzero" stroke="none" stroke-width="1" stroke-linecap="butt" stroke-linejoin="miter" stroke-miterlimit="10" stroke-dasharray="" stroke-dashoffset="0" font-family="none" font-weight="none" font-size="none" text-anchor="none" style="mix-blend-mode: normal" data-fill-palette-color="tertiary"></path></g><g transform="matrix(1,0,0,1,64,142.7906976744186)"><svg viewBox="0 0 192 74.4186046511628" height="74.4186046511628" width="192"><g><svg viewBox="0 0 192 74.4186046511628" height="74.4186046511628" width="192"><g><svg viewBox="0 0 192 74.4186046511628" height="74.4186046511628" width="192"><g><svg viewBox="0 0 192 74.4186046511628" height="74.4186046511628" width="192"><g id="textblocktransform"><svg viewBox="0 0 192 74.4186046511628" height="74.4186046511628" width="192" id="textblock"><g><svg viewBox="0 0 192 74.4186046511628" height="74.4186046511628" width="192"><g transform="matrix(1,0,0,1,0,0)"><svg width="192" viewBox="1.5099999904632568 -36.380001068115234 94.47999572753906 36.62000274658203" height="74.4186046511628" data-palette-color="#130912"><path d="M21.44-4.74L21.44-4.74Q23.24-4.74 25.29-5.18 27.34-5.62 29.05-6.62 30.76-7.62 31.88-9.16 33.01-10.69 33.01-12.89L33.01-12.89Q33.01-16.41 33.11-19.9 33.2-23.39 33.2-26.9L33.2-26.9Q33.2-27.54 33.2-28.83 33.2-30.13 33.15-31.49 33.11-32.86 33.01-34.08 32.91-35.3 32.71-35.89L32.71-35.89 41.6-35.89Q41.16-35.45 40.94-34.69 40.72-33.94 40.63-33.08 40.53-32.23 40.53-31.42 40.53-30.62 40.53-30.03L40.53-30.03Q40.53-25.73 40.67-21.56 40.82-17.38 40.82-13.09L40.82-13.09Q40.82-10.64 39.94-8.72 39.06-6.79 37.55-5.32 36.04-3.86 34.06-2.81 32.08-1.76 29.91-1.1 27.73-0.44 25.51-0.15 23.29 0.15 21.29 0.15L21.29 0.15Q18.21 0.15 14.87-0.56 11.52-1.27 8.74-2.83 5.96-4.39 4.13-6.91 2.29-9.42 2.29-13.09L2.29-13.09Q2.29-17.38 2.44-21.56 2.59-25.73 2.59-29.98L2.59-29.98Q2.59-30.57 2.59-31.4 2.59-32.23 2.49-33.08 2.39-33.94 2.17-34.69 1.95-35.45 1.51-35.89L1.51-35.89 10.69-35.89Q10.5-35.3 10.4-34.08 10.3-32.86 10.25-31.49 10.21-30.13 10.21-28.83 10.21-27.54 10.21-26.9L10.21-26.9Q10.21-23.39 10.3-19.9 10.4-16.41 10.4-12.89L10.4-12.89Q10.4-10.69 11.43-9.16 12.45-7.62 14.04-6.64 15.63-5.66 17.58-5.2 19.53-4.74 21.44-4.74ZM48.14-4.93L48.14-4.93Q48.68-4.93 49.39-4.79 50.1-4.64 50.71-4.35 51.32-4.05 51.76-3.59 52.19-3.13 52.19-2.44L52.19-2.44Q52.19-1.76 51.76-1.29 51.32-0.83 50.71-0.54 50.1-0.24 49.39-0.1 48.68 0.05 48.14 0.05L48.14 0.05Q47.6 0.05 46.9-0.1 46.19-0.24 45.58-0.54 44.97-0.83 44.53-1.29 44.09-1.76 44.09-2.44L44.09-2.44Q44.09-3.13 44.53-3.59 44.97-4.05 45.58-4.35 46.19-4.64 46.9-4.79 47.6-4.93 48.14-4.93ZM86.81-19.58Q87.06-20.65 87.25-21.7 87.45-22.75 87.45-23.88L87.45-23.88Q87.45-26.07 86.66-27.51 85.88-28.96 84.54-29.81 83.2-30.66 81.46-30.98 79.73-31.3 77.83-31.3L77.83-31.3Q76.66-31.3 75.14-31.13 73.63-30.96 72.04-30.59 70.45-30.22 68.89-29.64 67.33-29.05 66.13-28.17 64.94-27.29 64.18-26.1 63.42-24.9 63.42-23.39L63.42-23.39Q63.42-22.07 64.37-21.12 65.33-20.17 66.82-19.48 68.31-18.8 70.16-18.36 72.02-17.92 73.82-17.6 75.63-17.29 77.19-17.11 78.75-16.94 79.68-16.8L79.68-16.8Q80.85-16.6 82.54-16.33 84.22-16.06 86.03-15.63 87.84-15.19 89.62-14.55 91.4-13.92 92.82-13.01 94.23-12.11 95.11-10.91 95.99-9.72 95.99-8.15L95.99-8.15Q95.99-6.49 95.09-5.22 94.18-3.96 92.7-3 91.21-2.05 89.37-1.44 87.54-0.83 85.66-0.44 83.78-0.05 82.08 0.1 80.37 0.24 79.19 0.24L79.19 0.24Q74.02 0.24 68.94-0.61 63.86-1.46 59.03-3.37L59.03-3.37Q58.54-3.56 57.91-3.83 57.27-4.1 56.59-4.39 55.9-4.69 55.27-4.88 54.63-5.08 54.15-5.13L54.15-5.13Q54.44-5.42 55.05-5.96 55.66-6.49 56.27-7.13 56.88-7.76 57.39-8.33 57.91-8.89 58-9.18L58-9.18Q62.3-6.54 67.4-5.27 72.5-4 77.53-4L77.53-4Q78.36-4 80.15-4.13 81.93-4.25 83.71-4.64 85.49-5.03 86.84-5.74 88.18-6.45 88.18-7.62L88.18-7.62Q88.18-9.18 86.79-10.11 85.4-11.04 83.1-11.65 80.81-12.26 77.88-12.62 74.95-12.99 71.89-13.43 68.84-13.87 65.91-14.48 62.98-15.09 60.69-16.14 58.39-17.19 57-18.8 55.61-20.41 55.61-22.85L55.61-22.85Q55.61-25.44 56.66-27.44 57.71-29.44 59.49-30.96 61.27-32.47 63.54-33.5 65.82-34.52 68.28-35.16 70.75-35.79 73.19-36.08 75.63-36.38 77.68-36.38L77.68-36.38Q81.1-36.38 84.17-35.84 87.25-35.3 89.52-33.89 91.79-32.47 93.13-29.93 94.48-27.39 94.48-23.39L94.48-23.39Q94.48-22.41 94.4-21.48 94.33-20.56 94.23-19.58L94.23-19.58 86.81-19.58Z" opacity="1" transform="matrix(1,0,0,1,0,0)" fill="#ffffff" class="undefined-text-0" data-fill-palette-color="primary" id="text-0"></path></svg></g></svg></g></svg></g></svg></g><g></g></svg></g></svg></g></svg></g></svg></g><defs></defs></svg><rect width="320" height="360" fill="none" stroke="none" visibility="hidden"></rect></g></svg></g></svg>